# xmcd
#
# Track frame offsets:
#	150
#	12470
#	22235
#	33547
#	44310
#	59140
#	74765
#	95225
#	108270
#	124215
#	136592
#	147440
#	159177
#	174072
#	186670
#	202277
#	222605
#	235490
#	246457
#	261980
#	276160
#	286032
#	300042
#	311410
#	321697
#
# Disc length: 4406 seconds
#
# Revision: 1
# Processed by: cddbd v1.5.1PL2 Copyright (c) Steve Scherf et al.
# Submitted via: audiograbber 1.83.01
#
DISCID=92113419
DTITLE=Perry Como - Greatest Hits
DYEAR=1900
DGENRE=
TTITLE0=Magic Moments
TTITLE1=Caterina
TTITLE2=Catch A Falling Star
TTITLE3=I Know
TTITLE4=When You Where Sweet Sixteen
TTITLE5=I Believe
TTITLE6=Try To Remember
TTITLE7=Love Makes The World Go 'Round (Yeah Yeah)
TTITLE8=Prisoner of Love
TTITLE9=Dont't Let the Stars Get In Your Eyes
TTITLE10=Hot Diggity (Dog Ziggity Boom)
TTITLE11=Round And Round
TTITLE12=If I Loved You
TTITLE13=Hello Young Lovers
TTITLE14=Moonglow and Theme From Panic
TTITLE15=Killing Me Softly With Her Song
TTITLE16=Dear Hearts And Gentle People
TTITLE17=I Love You and Don't You Forget It
TTITLE18=Moon River
TTITLE19=Can't Help Falling In Love
TTITLE20=Swinging Down the Lane
TTITLE21=What's New
TTITLE22=They Can't Take That Away From Me
TTITLE23=Sleepy Ime Gal
TTITLE24=Deed I Do
EXTD=
EXTT0=
EXTT1=
EXTT2=
EXTT3=
EXTT4=
EXTT5=
EXTT6=
EXTT7=
EXTT8=
EXTT9=
EXTT10=
EXTT11=
EXTT12=
EXTT13=
EXTT14=
EXTT15=
EXTT16=
EXTT17=
EXTT18=
EXTT19=
EXTT20=
EXTT21=
EXTT22=
EXTT23=
EXTT24=
PLAYORDER=
